<svg  id="name_logo" width="207" height="238" viewBox="0 0 207 238" fill="none" xmlns="http://www.w3.org/2000/svg">
<path d="M34.0909 69.9091L61.7273 148.273H62.8182L90.4545 69.9091H102.273L68.0909 163H56.4545L22.2727 69.9091H34.0909Z" fill="black"/>
<path d="M116.773 163V69.9091H149.318C155.803 69.9091 161.152 71.0303 165.364 73.2727C169.576 75.4848 172.712 78.4697 174.773 82.2273C176.833 85.9545 177.864 90.0909 177.864 94.6364C177.864 98.6364 177.152 101.939 175.727 104.545C174.333 107.152 172.485 109.212 170.182 110.727C167.909 112.242 165.439 113.364 162.773 114.091V115C165.621 115.182 168.485 116.182 171.364 118C174.242 119.818 176.652 122.424 178.591 125.818C180.53 129.212 181.5 133.364 181.5 138.273C181.5 142.939 180.439 147.136 178.318 150.864C176.197 154.591 172.848 157.545 168.273 159.727C163.697 161.909 157.742 163 150.409 163H116.773ZM128.045 153H150.409C157.773 153 163 151.576 166.091 148.727C169.212 145.848 170.773 142.364 170.773 138.273C170.773 135.121 169.97 132.212 168.364 129.545C166.758 126.848 164.47 124.697 161.5 123.091C158.53 121.455 155.015 120.636 150.955 120.636H128.045V153ZM128.045 110.818H148.955C152.348 110.818 155.409 110.152 158.136 108.818C160.894 107.485 163.076 105.606 164.682 103.182C166.318 100.758 167.136 97.9091 167.136 94.6364C167.136 90.5455 165.712 87.0758 162.864 84.2273C160.015 81.3485 155.5 79.9091 149.318 79.9091H128.045V110.818Z" fill="black"/>
<path d="M5 62L103 6L202 62V177L103 232L5 177V62Z" fill="black"/>
<path d="M34.0909 69.9091L61.7273 148.273H62.8182L90.4545 69.9091H102.273L68.0909 163H56.4545L22.2727 69.9091H34.0909Z" stroke="white" stroke-width="9"/>
<path d="M116.773 163V69.9091H149.318C155.803 69.9091 161.152 71.0303 165.364 73.2727C169.576 75.4848 172.712 78.4697 174.773 82.2273C176.833 85.9545 177.864 90.0909 177.864 94.6364C177.864 98.6364 177.152 101.939 175.727 104.545C174.333 107.152 172.485 109.212 170.182 110.727C167.909 112.242 165.439 113.364 162.773 114.091V115C165.621 115.182 168.485 116.182 171.364 118C174.242 119.818 176.652 122.424 178.591 125.818C180.53 129.212 181.5 133.364 181.5 138.273C181.5 142.939 180.439 147.136 178.318 150.864C176.197 154.591 172.848 157.545 168.273 159.727C163.697 161.909 157.742 163 150.409 163H116.773ZM128.045 153H150.409C157.773 153 163 151.576 166.091 148.727C169.212 145.848 170.773 142.364 170.773 138.273C170.773 135.121 169.97 132.212 168.364 129.545C166.758 126.848 164.47 124.697 161.5 123.091C158.53 121.455 155.015 120.636 150.955 120.636H128.045V153ZM128.045 110.818H148.955C152.348 110.818 155.409 110.152 158.136 108.818C160.894 107.485 163.076 105.606 164.682 103.182C166.318 100.758 167.136 97.9091 167.136 94.6364C167.136 90.5455 165.712 87.0758 162.864 84.2273C160.015 81.3485 155.5 79.9091 149.318 79.9091H128.045V110.818Z" stroke="white" stroke-width="9"/>
<path d="M5 62L103 6L202 62V177L103 232L5 177V62Z" stroke="white" stroke-width="9"/>
</svg>
